<?xml version="1.0" encoding="utf-8"?>
<!-- Generator: Adobe Illustrator 25.2.0, SVG Export Plug-In . SVG Version: 6.00 Build 0)  -->
<svg version="1.1" id="Layer_1" xmlns="http://www.w3.org/2000/svg" xmlns:xlink="http://www.w3.org/1999/xlink" x="0px" y="0px"
	 viewBox="0 0 40 45.4" style="enable-background:new 0 0 40 45.4;" xml:space="preserve">
<style type="text/css">
	.st0{fill:#FFFFFF;}
</style>
<g id="Layer_2_1_">
	<g id="Layer_1-2">
		<g>
			<path class="st0" d="M5,41.6l-3.4-1.1v-0.5c0-0.2,0.1-0.3,0.3-0.3c0,0,0,0,0,0H5v-1.6H1.9c-1,0-1.9,0.8-1.9,1.8
				c0,0.1,0,0.1,0,0.2v0.8c0,0.5,0.3,0.9,0.7,1.1L4.2,43v0.6c0,0.2-0.1,0.3-0.3,0.3c0,0,0,0,0,0H0v1.5h3.9c1,0,1.9-0.8,1.9-1.8
				c0,0,0-0.1,0-0.1v-0.9C5.8,42.2,5.5,41.7,5,41.6"/>
			<path class="st0" d="M24,38.1v5.5c0,0.2-0.1,0.3-0.3,0.3c0,0,0,0,0,0h-2v1.5h2c1,0,1.9-0.8,1.9-1.8c0,0,0-0.1,0-0.1v-5.5H24z"/>
			<polygon class="st0" points="8,45.4 9.6,45.4 9.6,44.2 9.6,39.6 11.7,39.6 11.7,38.1 6,38.1 6,39.6 8,39.6 			"/>
			<path class="st0" d="M28.3,45.4v-2.9h2.2c1,0.1,1.9-0.7,1.9-1.7c0-0.1,0-0.1,0-0.2v-0.7c0-1-0.8-1.8-1.8-1.9c-0.1,0-0.1,0-0.2,0
				h-3.8v7.3H28.3z M28.3,39.6h2.2c0.2,0,0.3,0.1,0.3,0.3v0.7c0,0.2-0.1,0.3-0.3,0.3h-2.2L28.3,39.6z"/>
			<polygon class="st0" points="36.3,45.4 37.9,45.4 37.9,44.2 37.9,39.6 40,39.6 40,38.1 34.2,38.1 34.2,39.6 36.3,39.6 			"/>
			<rect x="19.2" y="38.1" class="st0" width="1.6" height="7.3"/>
			<path class="st0" d="M14,45.4v-3h1.4l1.4,3h1.8L17,42.2c0.7-0.3,1.1-0.9,1.1-1.6v-0.7c0-1-0.8-1.8-1.8-1.9c-0.1,0-0.1,0-0.2,0
				h-3.8v7.3H14z M14,39.6h2.2c0.2,0,0.3,0.1,0.3,0.3v0.7c0,0.2-0.1,0.3-0.3,0.3H14V39.6z"/>
			<path class="st0" d="M11.9,0H9v16.5l2.9-1.6L11.9,0z M30.7,11.5l-6,3.3l6,0.8V11.5z M15.7,19.8l-6.1,3.4L0,21.9v9.1l9.7,1.3
				l6.1-3.4L40,32.2v-9L15.7,19.8z M6.7,0H3.7v19.4l2.9-1.6L6.7,0z"/>
		</g>
	</g>
</g>
</svg>
