<svg xmlns="http://www.w3.org/2000/svg" viewBox="0 0 40.01 45.4">
  <defs>
    <style>
      .cls-1 {
        fill: #1a377b;
      }
    </style>
  </defs>
  <g id="Layer_2" data-name="Layer 2">
    <g id="Layer_1-2" data-name="Layer 1">
      <g>
        <path class="cls-1" d="M5,41.59,1.61,40.45v-.51a.3.3,0,0,1,.3-.32H5V38.07H1.91A1.84,1.84,0,0,0,0,40v.77a1.15,1.15,0,0,0,.73,1.06l3.43,1.14v.62a.3.3,0,0,1-.3.32H0V45.4H3.89a1.84,1.84,0,0,0,1.89-1.87v-.88A1.15,1.15,0,0,0,5,41.59"/>
        <path class="cls-1" d="M24,38.07v5.47a.31.31,0,0,1-.3.32h-2V45.4h2a1.83,1.83,0,0,0,1.88-1.87V38.07Z"/>
        <polygon class="cls-1" points="8.02 45.4 9.64 45.4 9.64 44.22 9.64 39.62 11.72 39.62 11.72 38.07 5.97 38.07 5.97 39.62 8.02 39.62 8.02 45.4"/>
        <path class="cls-1" d="M28.27,45.4V42.46h2.18a1.82,1.82,0,0,0,1.94-1.86v-.67a1.82,1.82,0,0,0-1.94-1.86H26.65V45.4Zm0-5.78h2.18a.32.32,0,0,1,.32.32v.65a.32.32,0,0,1-.32.32H28.26Z"/>
        <polygon class="cls-1" points="36.3 45.4 37.92 45.4 37.92 44.21 37.92 39.62 40.01 39.62 40.01 38.07 34.25 38.07 34.25 39.62 36.3 39.62 36.3 45.4"/>
        <rect class="cls-1" x="19.2" y="38.07" width="1.58" height="7.33"/>
        <path class="cls-1" d="M14,45.4V42.45h1.35l1.4,2.95h1.75L17,42.25a1.75,1.75,0,0,0,1.1-1.64v-.68a1.82,1.82,0,0,0-1.94-1.86H12.4V45.4Zm0-5.78h2.18a.32.32,0,0,1,.32.32v.65a.32.32,0,0,1-.32.32H14Z"/>
        <path class="cls-1" d="M11.92,0H9V16.48l2.94-1.65ZM30.74,11.54l-6,3.32,6,.84Zm-15,8.29L9.69,23.22,0,21.87v9.05l9.69,1.35,6.09-3.39L40,32.19v-9ZM6.68,0H3.74V19.41l2.94-1.64Z"/>
      </g>
    </g>
  </g>
</svg>
